<svg xmlns="http://www.w3.org/2000/svg" viewBox="0 0 400 230" width="400" height="230">
<rect x="0" y="0" width="400" height="230" fill="#0b0b09"/>
<path transform="translate(24.00,150.00) scale(0.065355,-0.065355)" d="M499 124H237L195 0H16L270 702H468L722 0H541ZM455 256 368 513 282 256Z" fill="#a7a8a3"/>
<path transform="translate(73.47,150.00) scale(0.065355,-0.065355)" d="M233 132H457V0H62V702H233Z" fill="#a7a8a3"/>
<path transform="translate(126.87,150.00) scale(0.065355,-0.065355)" d="M499 124H237L195 0H16L270 702H468L722 0H541ZM455 256 368 513 282 256Z" fill="#a7a8a3"/>
<path transform="translate(176.34,150.00) scale(0.065355,-0.065355)" d="M664 702 421 232V0H250V232L7 702H201L337 408L472 702Z" fill="#a7a8a3"/>
<path transform="translate(221.50,150.00) scale(0.065355,-0.065355)" d="M33 353Q33 456 81.5 538.0Q130 620 212.5 666.0Q295 712 394 712Q493 712 575.5 666.0Q658 620 705.5 538.0Q753 456 753 353Q753 250 705.0 167.5Q657 85 575.0 39.0Q493 -7 394 -7Q295 -7 212.5 39.0Q130 85 81.5 167.5Q33 250 33 353ZM579 353Q579 446 528.5 501.5Q478 557 394 557Q309 557 258.5 502.0Q208 447 208 353Q208 260 258.5 204.5Q309 149 394 149Q478 149 528.5 205.0Q579 261 579 353Z" fill="#a7a8a3"/>
<path transform="translate(274.18,150.00) scale(0.065355,-0.065355)" d="M33 353Q33 456 81.5 538.0Q130 620 212.5 666.0Q295 712 394 712Q493 712 575.5 666.0Q658 620 705.5 538.0Q753 456 753 353Q753 250 705.0 167.5Q657 85 575.0 39.0Q493 -7 394 -7Q295 -7 212.5 39.0Q130 85 81.5 167.5Q33 250 33 353ZM579 353Q579 446 528.5 501.5Q478 557 394 557Q309 557 258.5 502.0Q208 447 208 353Q208 260 258.5 204.5Q309 149 394 149Q478 149 528.5 205.0Q579 261 579 353Z" fill="#a7a8a3"/>
<path transform="translate(326.85,150.00) scale(0.065355,-0.065355)" d="M690 0H519L233 433V0H62V702H233L519 267V702H690Z" fill="#a7a8a3"/>
<path transform="translate(134.09,195.00) scale(0.006348,-0.006348)" d="M616 1315 403 551H829ZM494 1493H739L1196 0H987L877 389H354L246 0H37Z" fill="#373734"/>
<path transform="translate(146.07,195.00) scale(0.006348,-0.006348)" d="M215 1493H418V170H1139V0H215Z" fill="#373734"/>
<path transform="translate(166.12,195.00) scale(0.006348,-0.006348)" d="M616 1315 403 551H829ZM494 1493H739L1196 0H987L877 389H354L246 0H37Z" fill="#373734"/>
<path transform="translate(178.11,195.00) scale(0.006348,-0.006348)" d="M37 1493H252L616 834L979 1493H1196L717 670V0H514V670Z" fill="#373734"/>
<path transform="translate(190.09,195.00) scale(0.006348,-0.006348)" d="M905 745Q905 1074 837.5 1215.0Q770 1356 616 1356Q463 1356 395.5 1215.0Q328 1074 328 745Q328 417 395.5 276.0Q463 135 616 135Q770 135 837.5 275.5Q905 416 905 745ZM1116 745Q1116 355 992.5 163.0Q869 -29 616 -29Q363 -29 240.0 162.0Q117 353 117 745Q117 1136 240.5 1328.0Q364 1520 616 1520Q869 1520 992.5 1328.0Q1116 1136 1116 745Z" fill="#373734"/>
<path transform="translate(202.08,195.00) scale(0.006348,-0.006348)" d="M905 745Q905 1074 837.5 1215.0Q770 1356 616 1356Q463 1356 395.5 1215.0Q328 1074 328 745Q328 417 395.5 276.0Q463 135 616 135Q770 135 837.5 275.5Q905 416 905 745ZM1116 745Q1116 355 992.5 163.0Q869 -29 616 -29Q363 -29 240.0 162.0Q117 353 117 745Q117 1136 240.5 1328.0Q364 1520 616 1520Q869 1520 992.5 1328.0Q1116 1136 1116 745Z" fill="#373734"/>
<path transform="translate(214.07,195.00) scale(0.006348,-0.006348)" d="M139 1493H395L899 264V1493H1094V0H838L334 1229V0H139Z" fill="#373734"/>
<path transform="translate(234.11,195.00) scale(0.006348,-0.006348)" d="M735 1309 264 520H735ZM702 1493H936V520H1135V356H936V0H735V356H102V547Z" fill="#373734"/>
<path transform="translate(246.10,195.00) scale(0.006348,-0.006348)" d="M86 1493H303L631 930L965 1493H1182L735 791L1214 0H997L631 643L236 0H18L518 791Z" fill="#373734"/>
<path transform="translate(258.09,195.00) scale(0.006348,-0.006348)" d="M735 1309 264 520H735ZM702 1493H936V520H1135V356H936V0H735V356H102V547Z" fill="#373734"/>
</svg>