<svg xmlns="http://www.w3.org/2000/svg" viewBox="0 0 400 230" width="400" height="230">
<rect x="0" y="0" width="400" height="230" fill="#0b0b09"/>
<path transform="translate(24.00,150.00) scale(0.064587,-0.064587)" d="M494 142H203L153 0H34L283 696H415L664 0H544ZM462 235 349 558 235 235Z" fill="#a7a8a3"/>
<path transform="translate(71.60,150.00) scale(0.064587,-0.064587)" d="M189 92H424V0H75V695H189Z" fill="#a7a8a3"/>
<path transform="translate(124.82,150.00) scale(0.064587,-0.064587)" d="M58 192H180Q184 147 215.5 118.0Q247 89 304 89Q363 89 396.0 117.5Q429 146 429 191Q429 226 408.5 248.0Q388 270 357.5 282.0Q327 294 273 308Q205 326 162.5 344.5Q120 363 90.0 402.0Q60 441 60 506Q60 566 90.0 611.0Q120 656 174.0 680.0Q228 704 299 704Q400 704 464.5 653.5Q529 603 536 515H410Q407 553 374.0 580.0Q341 607 287 607Q238 607 207.0 582.0Q176 557 176 510Q176 478 195.5 457.5Q215 437 245.0 425.0Q275 413 327 399Q396 380 439.5 361.0Q483 342 513.5 302.5Q544 263 544 197Q544 144 515.5 97.0Q487 50 432.5 21.5Q378 -7 304 -7Q234 -7 178.0 17.5Q122 42 90.0 87.0Q58 132 58 192Z" fill="#a7a8a3"/>
<path transform="translate(166.41,150.00) scale(0.064587,-0.064587)" d="M630 695V0H516V304H189V0H75V695H189V397H516V695Z" fill="#a7a8a3"/>
<path transform="translate(214.53,150.00) scale(0.064587,-0.064587)" d="M494 142H203L153 0H34L283 696H415L664 0H544ZM462 235 349 558 235 235Z" fill="#a7a8a3"/>
<path transform="translate(262.13,150.00) scale(0.064587,-0.064587)" d="M436 0 276 278H189V0H75V695H315Q395 695 450.5 667.0Q506 639 533.5 592.0Q561 545 561 487Q561 419 521.5 363.5Q482 308 400 288L572 0ZM189 369H315Q379 369 411.5 401.0Q444 433 444 487Q444 541 412.0 571.5Q380 602 315 602H189Z" fill="#a7a8a3"/>
<path transform="translate(305.54,150.00) scale(0.064587,-0.064587)" d="M613 -126 491 6Q446 -7 392 -7Q295 -7 213.5 38.5Q132 84 84.5 165.5Q37 247 37 349Q37 451 84.5 532.0Q132 613 213.5 658.5Q295 704 392 704Q490 704 571.5 658.5Q653 613 700.0 532.0Q747 451 747 349Q747 253 705.5 175.5Q664 98 591 51L758 -126ZM392 92Q461 92 515.0 123.5Q569 155 599.5 213.5Q630 272 630 349Q630 426 599.5 484.0Q569 542 515.0 573.0Q461 604 392 604Q323 604 269.0 573.0Q215 542 184.5 484.0Q154 426 154 349Q154 272 184.5 213.5Q215 155 269.0 123.5Q323 92 392 92Z" fill="#a7a8a3"/>
<path transform="translate(358.95,150.00) scale(0.064587,-0.064587)" d="M189 695V0H75V695Z" fill="#a7a8a3"/>
<path transform="translate(150.10,195.00) scale(0.006348,-0.006348)" d="M616 1315 403 551H829ZM494 1493H739L1196 0H987L877 389H354L246 0H37Z" fill="#373734"/>
<path transform="translate(162.09,195.00) scale(0.006348,-0.006348)" d="M215 1493H418V170H1139V0H215Z" fill="#373734"/>
<path transform="translate(182.14,195.00) scale(0.006348,-0.006348)" d="M1012 1442V1237Q920 1296 827.5 1326.0Q735 1356 641 1356Q498 1356 415.0 1289.5Q332 1223 332 1110Q332 1011 386.5 959.0Q441 907 590 872L696 848Q906 799 1002.0 694.0Q1098 589 1098 408Q1098 195 966.0 83.0Q834 -29 582 -29Q477 -29 371.0 -6.5Q265 16 158 61V276Q273 203 375.5 169.0Q478 135 582 135Q735 135 820.0 203.5Q905 272 905 395Q905 507 846.5 566.0Q788 625 643 657L535 682Q327 729 233.0 824.0Q139 919 139 1079Q139 1279 273.5 1399.5Q408 1520 631 1520Q717 1520 812.0 1500.5Q907 1481 1012 1442Z" fill="#373734"/>
<path transform="translate(194.12,195.00) scale(0.006348,-0.006348)" d="M137 1493H340V881H893V1493H1096V0H893V711H340V0H137Z" fill="#373734"/>
<path transform="translate(206.11,195.00) scale(0.006348,-0.006348)" d="M616 1315 403 551H829ZM494 1493H739L1196 0H987L877 389H354L246 0H37Z" fill="#373734"/>
<path transform="translate(218.10,195.00) scale(0.006348,-0.006348)" d="M760 705Q838 685 893.0 629.5Q948 574 1030 408L1233 0H1016L838 377Q761 538 699.5 584.5Q638 631 539 631H346V0H143V1493H559Q805 1493 936.0 1382.0Q1067 1271 1067 1061Q1067 913 986.5 819.5Q906 726 760 705ZM346 1327V797H567Q712 797 783.0 862.0Q854 927 854 1061Q854 1190 778.5 1258.5Q703 1327 559 1327Z" fill="#373734"/>
<path transform="translate(230.08,195.00) scale(0.006348,-0.006348)" d="M655 -27Q648 -27 635.0 -28.0Q622 -29 614 -29Q364 -29 240.5 163.0Q117 355 117 745Q117 1136 240.5 1328.0Q364 1520 616 1520Q869 1520 992.5 1328.0Q1116 1136 1116 745Q1116 451 1047.5 271.5Q979 92 840 20L1040 -170L889 -270ZM905 745Q905 1074 837.5 1215.0Q770 1356 616 1356Q463 1356 395.5 1215.0Q328 1074 328 745Q328 417 395.5 276.0Q463 135 616 135Q770 135 837.5 275.5Q905 416 905 745Z" fill="#373734"/>
<path transform="translate(242.07,195.00) scale(0.006348,-0.006348)" d="M201 1493H1030V1323H717V170H1030V0H201V170H514V1323H201Z" fill="#373734"/>
</svg>