<svg xmlns="http://www.w3.org/2000/svg" viewBox="0 0 400 230" width="400" height="230">
<rect x="0" y="0" width="400" height="230" fill="#0b0b09"/>
<path transform="translate(24.00,150.00) scale(0.087497,-0.087497)" d="M581 187Q581 134 553.5 91.5Q526 49 474.0 24.5Q422 0 353 0H75V695H340Q411 695 462.0 671.0Q513 647 539.0 606.5Q565 566 565 516Q565 456 533.0 416.0Q501 376 447 357Q503 347 542.0 298.0Q581 249 581 187ZM189 403H330Q386 403 417.5 428.5Q449 454 449 502Q449 549 417.5 575.5Q386 602 330 602H189ZM467 199Q467 250 432.0 280.0Q397 310 339 310H189V93H343Q401 93 434.0 121.0Q467 149 467 199Z" fill="#a7a8a3"/>
<path transform="translate(84.37,150.00) scale(0.087497,-0.087497)" d="M436 0 276 278H189V0H75V695H315Q395 695 450.5 667.0Q506 639 533.5 592.0Q561 545 561 487Q561 419 521.5 363.5Q482 308 400 288L572 0ZM189 369H315Q379 369 411.5 401.0Q444 433 444 487Q444 541 412.0 571.5Q380 602 315 602H189Z" fill="#a7a8a3"/>
<path transform="translate(144.92,150.00) scale(0.087497,-0.087497)" d="M189 695V0H75V695Z" fill="#a7a8a3"/>
<path transform="translate(173.27,150.00) scale(0.087497,-0.087497)" d="M524 695V602H339V0H225V602H39V695Z" fill="#a7a8a3"/>
<path transform="translate(227.87,150.00) scale(0.087497,-0.087497)" d="M189 695V0H75V695Z" fill="#a7a8a3"/>
<path transform="translate(256.22,150.00) scale(0.087497,-0.087497)" d="M58 192H180Q184 147 215.5 118.0Q247 89 304 89Q363 89 396.0 117.5Q429 146 429 191Q429 226 408.5 248.0Q388 270 357.5 282.0Q327 294 273 308Q205 326 162.5 344.5Q120 363 90.0 402.0Q60 441 60 506Q60 566 90.0 611.0Q120 656 174.0 680.0Q228 704 299 704Q400 704 464.5 653.5Q529 603 536 515H410Q407 553 374.0 580.0Q341 607 287 607Q238 607 207.0 582.0Q176 557 176 510Q176 478 195.5 457.5Q215 437 245.0 425.0Q275 413 327 399Q396 380 439.5 361.0Q483 342 513.5 302.5Q544 263 544 197Q544 144 515.5 97.0Q487 50 432.5 21.5Q378 -7 304 -7Q234 -7 178.0 17.5Q122 42 90.0 87.0Q58 132 58 192Z" fill="#a7a8a3"/>
<path transform="translate(314.31,150.00) scale(0.087497,-0.087497)" d="M630 695V0H516V304H189V0H75V695H189V397H516V695Z" fill="#a7a8a3"/>
<path transform="translate(102.16,195.00) scale(0.006348,-0.006348)" d="M369 713V166H608Q784 166 859.0 227.5Q934 289 934 430Q934 576 855.0 644.5Q776 713 608 713ZM369 1327V877H604Q750 877 815.5 933.0Q881 989 881 1114Q881 1227 816.5 1277.0Q752 1327 604 1327ZM166 1493H608Q837 1493 961.0 1394.0Q1085 1295 1085 1114Q1085 977 1019.5 898.0Q954 819 823 799Q970 777 1053.5 673.5Q1137 570 1137 410Q1137 207 1004.0 103.5Q871 0 608 0H166Z" fill="#373734"/>
<path transform="translate(114.14,195.00) scale(0.006348,-0.006348)" d="M760 705Q838 685 893.0 629.5Q948 574 1030 408L1233 0H1016L838 377Q761 538 699.5 584.5Q638 631 539 631H346V0H143V1493H559Q805 1493 936.0 1382.0Q1067 1271 1067 1061Q1067 913 986.5 819.5Q906 726 760 705ZM346 1327V797H567Q712 797 783.0 862.0Q854 927 854 1061Q854 1190 778.5 1258.5Q703 1327 559 1327Z" fill="#373734"/>
<path transform="translate(126.13,195.00) scale(0.006348,-0.006348)" d="M201 1493H1030V1323H717V170H1030V0H201V170H514V1323H201Z" fill="#373734"/>
<path transform="translate(138.12,195.00) scale(0.006348,-0.006348)" d="M47 1493H1186V1323H719V0H516V1323H47Z" fill="#373734"/>
<path transform="translate(150.10,195.00) scale(0.006348,-0.006348)" d="M201 1493H1030V1323H717V170H1030V0H201V170H514V1323H201Z" fill="#373734"/>
<path transform="translate(162.09,195.00) scale(0.006348,-0.006348)" d="M1012 1442V1237Q920 1296 827.5 1326.0Q735 1356 641 1356Q498 1356 415.0 1289.5Q332 1223 332 1110Q332 1011 386.5 959.0Q441 907 590 872L696 848Q906 799 1002.0 694.0Q1098 589 1098 408Q1098 195 966.0 83.0Q834 -29 582 -29Q477 -29 371.0 -6.5Q265 16 158 61V276Q273 203 375.5 169.0Q478 135 582 135Q735 135 820.0 203.5Q905 272 905 395Q905 507 846.5 566.0Q788 625 643 657L535 682Q327 729 233.0 824.0Q139 919 139 1079Q139 1279 273.5 1399.5Q408 1520 631 1520Q717 1520 812.0 1500.5Q907 1481 1012 1442Z" fill="#373734"/>
<path transform="translate(174.08,195.00) scale(0.006348,-0.006348)" d="M137 1493H340V881H893V1493H1096V0H893V711H340V0H137Z" fill="#373734"/>
<path transform="translate(194.12,195.00) scale(0.006348,-0.006348)" d="M399 1327V766H633Q773 766 851.5 840.0Q930 914 930 1047Q930 1180 852.0 1253.5Q774 1327 633 1327ZM197 1493H633Q883 1493 1012.0 1379.5Q1141 1266 1141 1047Q1141 826 1012.5 713.0Q884 600 633 600H399V0H197Z" fill="#373734"/>
<path transform="translate(206.11,195.00) scale(0.006348,-0.006348)" d="M905 745Q905 1074 837.5 1215.0Q770 1356 616 1356Q463 1356 395.5 1215.0Q328 1074 328 745Q328 417 395.5 276.0Q463 135 616 135Q770 135 837.5 275.5Q905 416 905 745ZM1116 745Q1116 355 992.5 163.0Q869 -29 616 -29Q363 -29 240.0 162.0Q117 353 117 745Q117 1136 240.5 1328.0Q364 1520 616 1520Q869 1520 992.5 1328.0Q1116 1136 1116 745Z" fill="#373734"/>
<path transform="translate(218.10,195.00) scale(0.006348,-0.006348)" d="M215 1493H418V170H1139V0H215Z" fill="#373734"/>
<path transform="translate(230.08,195.00) scale(0.006348,-0.006348)" d="M201 1493H1030V1323H717V170H1030V0H201V170H514V1323H201Z" fill="#373734"/>
<path transform="translate(242.07,195.00) scale(0.006348,-0.006348)" d="M1012 1442V1237Q920 1296 827.5 1326.0Q735 1356 641 1356Q498 1356 415.0 1289.5Q332 1223 332 1110Q332 1011 386.5 959.0Q441 907 590 872L696 848Q906 799 1002.0 694.0Q1098 589 1098 408Q1098 195 966.0 83.0Q834 -29 582 -29Q477 -29 371.0 -6.5Q265 16 158 61V276Q273 203 375.5 169.0Q478 135 582 135Q735 135 820.0 203.5Q905 272 905 395Q905 507 846.5 566.0Q788 625 643 657L535 682Q327 729 233.0 824.0Q139 919 139 1079Q139 1279 273.5 1399.5Q408 1520 631 1520Q717 1520 812.0 1500.5Q907 1481 1012 1442Z" fill="#373734"/>
<path transform="translate(254.06,195.00) scale(0.006348,-0.006348)" d="M137 1493H340V881H893V1493H1096V0H893V711H340V0H137Z" fill="#373734"/>
<path transform="translate(266.04,195.00) scale(0.006348,-0.006348)" d="M201 1493H1030V1323H717V170H1030V0H201V170H514V1323H201Z" fill="#373734"/>
<path transform="translate(278.03,195.00) scale(0.006348,-0.006348)" d="M139 1493H395L899 264V1493H1094V0H838L334 1229V0H139Z" fill="#373734"/>
<path transform="translate(290.02,195.00) scale(0.006348,-0.006348)" d="M1104 123Q1023 48 921.5 9.5Q820 -29 702 -29Q418 -29 260.0 174.5Q102 378 102 745Q102 1111 262.0 1315.5Q422 1520 707 1520Q801 1520 887.0 1493.5Q973 1467 1053 1413V1206Q972 1283 887.0 1319.5Q802 1356 707 1356Q510 1356 411.5 1203.5Q313 1051 313 745Q313 434 408.5 284.5Q504 135 702 135Q769 135 819.5 150.5Q870 166 911 199V600H694V766H1104Z" fill="#373734"/>
</svg>