<svg xmlns="http://www.w3.org/2000/svg" viewBox="0 0 400 230" width="400" height="230">
<rect x="0" y="0" width="400" height="230" fill="#0b0b09"/>
<path transform="translate(24.00,150.00) scale(0.050830,-0.050830)" d="M657 348Q657 240 613.0 161.5Q569 83 486.0 41.5Q403 0 287 0H80V699H287Q403 699 486.0 657.0Q569 615 613.0 536.0Q657 457 657 348ZM586 348Q586 486 509.5 563.5Q433 641 287 641H150V58H287Q433 58 509.5 134.5Q586 211 586 348Z" fill="#a7a8a3"/>
<path transform="translate(62.43,150.00) scale(0.050830,-0.050830)" d="M150 642V381H415V323H150V58H445V0H80V700H445V642Z" fill="#a7a8a3"/>
<path transform="translate(90.54,150.00) scale(0.050830,-0.050830)" d="M56 180H130Q135 129 175.0 90.5Q215 52 292 52Q363 52 404.5 88.5Q446 125 446 181Q446 226 423.0 253.5Q400 281 366.0 294.5Q332 308 272 324Q202 343 161.0 361.0Q120 379 91.0 417.0Q62 455 62 520Q62 574 90.0 616.5Q118 659 169.0 683.0Q220 707 286 707Q383 707 442.5 659.5Q502 612 511 537H435Q428 580 388.0 613.5Q348 647 280 647Q217 647 175.0 613.5Q133 580 133 522Q133 478 156.0 451.0Q179 424 213.5 410.0Q248 396 307 380Q375 361 417.0 342.5Q459 324 488.0 286.0Q517 248 517 184Q517 135 491.0 91.0Q465 47 414.0 20.0Q363 -7 292 -7Q223 -7 170.5 17.0Q118 41 88.0 84.0Q58 127 56 180Z" fill="#a7a8a3"/>
<path transform="translate(122.15,150.00) scale(0.050830,-0.050830)" d="M150 642V381H415V323H150V58H445V0H80V700H445V642Z" fill="#a7a8a3"/>
<path transform="translate(150.26,150.00) scale(0.050830,-0.050830)" d="M452 0 279 292H150V0H80V699H290Q407 699 467.5 643.0Q528 587 528 496Q528 420 484.5 366.5Q441 313 356 297L536 0ZM150 349H291Q373 349 414.5 389.0Q456 429 456 496Q456 565 416.0 602.5Q376 640 290 640H150Z" fill="#a7a8a3"/>
<path transform="translate(182.64,150.00) scale(0.050830,-0.050830)" d="M489 699V641H295V0H225V641H30V699Z" fill="#a7a8a3"/>
<path transform="translate(229.41,150.00) scale(0.050830,-0.050830)" d="M657 348Q657 240 613.0 161.5Q569 83 486.0 41.5Q403 0 287 0H80V699H287Q403 699 486.0 657.0Q569 615 613.0 536.0Q657 457 657 348ZM586 348Q586 486 509.5 563.5Q433 641 287 641H150V58H287Q433 58 509.5 134.5Q586 211 586 348Z" fill="#a7a8a3"/>
<path transform="translate(267.83,150.00) scale(0.050830,-0.050830)" d="M452 0 279 292H150V0H80V699H290Q407 699 467.5 643.0Q528 587 528 496Q528 420 484.5 366.5Q441 313 356 297L536 0ZM150 349H291Q373 349 414.5 389.0Q456 429 456 496Q456 565 416.0 602.5Q376 640 290 640H150Z" fill="#a7a8a3"/>
<path transform="translate(300.21,150.00) scale(0.050830,-0.050830)" d="M150 699V0H80V699Z" fill="#a7a8a3"/>
<path transform="translate(314.39,150.00) scale(0.050830,-0.050830)" d="M634 699 369 0H289L24 699H100L329 76L560 699Z" fill="#a7a8a3"/>
<path transform="translate(350.43,150.00) scale(0.050830,-0.050830)" d="M150 642V381H415V323H150V58H445V0H80V700H445V642Z" fill="#a7a8a3"/>
<path transform="translate(132.12,195.00) scale(0.006348,-0.006348)" d="M436 166Q691 166 792.0 291.5Q893 417 893 745Q893 1076 792.5 1201.5Q692 1327 436 1327H340V166ZM440 1493Q782 1493 944.0 1311.0Q1106 1129 1106 745Q1106 363 944.0 181.5Q782 0 440 0H137V1493Z" fill="#373734"/>
<path transform="translate(144.11,195.00) scale(0.006348,-0.006348)" d="M197 1493H1083V1323H399V881H1053V711H399V170H1102V0H197Z" fill="#373734"/>
<path transform="translate(156.10,195.00) scale(0.006348,-0.006348)" d="M1012 1442V1237Q920 1296 827.5 1326.0Q735 1356 641 1356Q498 1356 415.0 1289.5Q332 1223 332 1110Q332 1011 386.5 959.0Q441 907 590 872L696 848Q906 799 1002.0 694.0Q1098 589 1098 408Q1098 195 966.0 83.0Q834 -29 582 -29Q477 -29 371.0 -6.5Q265 16 158 61V276Q273 203 375.5 169.0Q478 135 582 135Q735 135 820.0 203.5Q905 272 905 395Q905 507 846.5 566.0Q788 625 643 657L535 682Q327 729 233.0 824.0Q139 919 139 1079Q139 1279 273.5 1399.5Q408 1520 631 1520Q717 1520 812.0 1500.5Q907 1481 1012 1442Z" fill="#373734"/>
<path transform="translate(168.08,195.00) scale(0.006348,-0.006348)" d="M197 1493H1083V1323H399V881H1053V711H399V170H1102V0H197Z" fill="#373734"/>
<path transform="translate(180.07,195.00) scale(0.006348,-0.006348)" d="M760 705Q838 685 893.0 629.5Q948 574 1030 408L1233 0H1016L838 377Q761 538 699.5 584.5Q638 631 539 631H346V0H143V1493H559Q805 1493 936.0 1382.0Q1067 1271 1067 1061Q1067 913 986.5 819.5Q906 726 760 705ZM346 1327V797H567Q712 797 783.0 862.0Q854 927 854 1061Q854 1190 778.5 1258.5Q703 1327 559 1327Z" fill="#373734"/>
<path transform="translate(192.06,195.00) scale(0.006348,-0.006348)" d="M47 1493H1186V1323H719V0H516V1323H47Z" fill="#373734"/>
<path transform="translate(212.10,195.00) scale(0.006348,-0.006348)" d="M436 166Q691 166 792.0 291.5Q893 417 893 745Q893 1076 792.5 1201.5Q692 1327 436 1327H340V166ZM440 1493Q782 1493 944.0 1311.0Q1106 1129 1106 745Q1106 363 944.0 181.5Q782 0 440 0H137V1493Z" fill="#373734"/>
<path transform="translate(224.09,195.00) scale(0.006348,-0.006348)" d="M760 705Q838 685 893.0 629.5Q948 574 1030 408L1233 0H1016L838 377Q761 538 699.5 584.5Q638 631 539 631H346V0H143V1493H559Q805 1493 936.0 1382.0Q1067 1271 1067 1061Q1067 913 986.5 819.5Q906 726 760 705ZM346 1327V797H567Q712 797 783.0 862.0Q854 927 854 1061Q854 1190 778.5 1258.5Q703 1327 559 1327Z" fill="#373734"/>
<path transform="translate(236.08,195.00) scale(0.006348,-0.006348)" d="M201 1493H1030V1323H717V170H1030V0H201V170H514V1323H201Z" fill="#373734"/>
<path transform="translate(248.06,195.00) scale(0.006348,-0.006348)" d="M616 170 967 1493H1176L739 0H494L57 1493H266Z" fill="#373734"/>
<path transform="translate(260.05,195.00) scale(0.006348,-0.006348)" d="M197 1493H1083V1323H399V881H1053V711H399V170H1102V0H197Z" fill="#373734"/>
</svg>