<svg xmlns="http://www.w3.org/2000/svg" viewBox="0 0 400 230" width="400" height="230">
<rect x="0" y="0" width="400" height="230" fill="#0b0b09"/>
<path transform="translate(24.00,150.00) scale(0.084595,-0.084595)" d="M519 702V565H233V417H447V284H233V0H62V702Z" fill="#a7a8a3"/>
<path transform="translate(71.97,150.00) scale(0.084595,-0.084595)" d="M499 124H237L195 0H16L270 702H468L722 0H541ZM455 256 368 513 282 256Z" fill="#a7a8a3"/>
<path transform="translate(136.00,150.00) scale(0.084595,-0.084595)" d="M233 132H457V0H62V702H233Z" fill="#a7a8a3"/>
<path transform="translate(178.05,150.00) scale(0.084595,-0.084595)" d="M386 710Q511 710 600.0 644.0Q689 578 719 464H531Q510 508 471.5 531.0Q433 554 384 554Q305 554 256.0 499.0Q207 444 207 352Q207 260 256.0 205.0Q305 150 384 150Q433 150 471.5 173.0Q510 196 531 240H719Q689 126 600.0 60.5Q511 -5 386 -5Q284 -5 203.5 40.5Q123 86 78.0 167.0Q33 248 33 352Q33 456 78.0 537.5Q123 619 203.5 664.5Q284 710 386 710Z" fill="#a7a8a3"/>
<path transform="translate(244.20,150.00) scale(0.084595,-0.084595)" d="M33 353Q33 456 81.5 538.0Q130 620 212.5 666.0Q295 712 394 712Q493 712 575.5 666.0Q658 620 705.5 538.0Q753 456 753 353Q753 250 705.0 167.5Q657 85 575.0 39.0Q493 -7 394 -7Q295 -7 212.5 39.0Q130 85 81.5 167.5Q33 250 33 353ZM579 353Q579 446 528.5 501.5Q478 557 394 557Q309 557 258.5 502.0Q208 447 208 353Q208 260 258.5 204.5Q309 149 394 149Q478 149 528.5 205.0Q579 261 579 353Z" fill="#a7a8a3"/>
<path transform="translate(312.38,150.00) scale(0.084595,-0.084595)" d="M690 0H519L233 433V0H62V702H233L519 267V702H690Z" fill="#a7a8a3"/>
<path transform="translate(110.11,195.00) scale(0.006348,-0.006348)" d="M233 1493H1112V1323H436V883H1049V713H436V0H233Z" fill="#373734"/>
<path transform="translate(122.10,195.00) scale(0.006348,-0.006348)" d="M616 1315 403 551H829ZM494 1493H739L1196 0H987L877 389H354L246 0H37Z" fill="#373734"/>
<path transform="translate(134.09,195.00) scale(0.006348,-0.006348)" d="M215 1493H418V170H1139V0H215Z" fill="#373734"/>
<path transform="translate(146.07,195.00) scale(0.006348,-0.006348)" d="M1073 53Q996 12 915.0 -8.5Q834 -29 743 -29Q456 -29 297.5 174.0Q139 377 139 745Q139 1111 298.5 1315.5Q458 1520 743 1520Q834 1520 915.0 1499.5Q996 1479 1073 1438V1231Q999 1292 914.0 1324.0Q829 1356 743 1356Q546 1356 448.0 1204.0Q350 1052 350 745Q350 439 448.0 287.0Q546 135 743 135Q831 135 915.5 167.0Q1000 199 1073 260Z" fill="#373734"/>
<path transform="translate(158.06,195.00) scale(0.006348,-0.006348)" d="M905 745Q905 1074 837.5 1215.0Q770 1356 616 1356Q463 1356 395.5 1215.0Q328 1074 328 745Q328 417 395.5 276.0Q463 135 616 135Q770 135 837.5 275.5Q905 416 905 745ZM1116 745Q1116 355 992.5 163.0Q869 -29 616 -29Q363 -29 240.0 162.0Q117 353 117 745Q117 1136 240.5 1328.0Q364 1520 616 1520Q869 1520 992.5 1328.0Q1116 1136 1116 745Z" fill="#373734"/>
<path transform="translate(170.05,195.00) scale(0.006348,-0.006348)" d="M139 1493H395L899 264V1493H1094V0H838L334 1229V0H139Z" fill="#373734"/>
<path transform="translate(190.09,195.00) scale(0.006348,-0.006348)" d="M616 1315 403 551H829ZM494 1493H739L1196 0H987L877 389H354L246 0H37Z" fill="#373734"/>
<path transform="translate(202.08,195.00) scale(0.006348,-0.006348)" d="M147 573V1493H350V481Q350 372 356.0 325.5Q362 279 377 254Q409 195 469.5 165.0Q530 135 616 135Q703 135 763.0 165.0Q823 195 856 254Q871 279 877.0 325.0Q883 371 883 479V1493H1085V573Q1085 344 1056.5 247.5Q1028 151 958 88Q892 29 807.0 0.0Q722 -29 616 -29Q511 -29 426.0 0.0Q341 29 274 88Q205 150 176.0 248.5Q147 347 147 573Z" fill="#373734"/>
<path transform="translate(214.07,195.00) scale(0.006348,-0.006348)" d="M47 1493H1186V1323H719V0H516V1323H47Z" fill="#373734"/>
<path transform="translate(226.05,195.00) scale(0.006348,-0.006348)" d="M905 745Q905 1074 837.5 1215.0Q770 1356 616 1356Q463 1356 395.5 1215.0Q328 1074 328 745Q328 417 395.5 276.0Q463 135 616 135Q770 135 837.5 275.5Q905 416 905 745ZM1116 745Q1116 355 992.5 163.0Q869 -29 616 -29Q363 -29 240.0 162.0Q117 353 117 745Q117 1136 240.5 1328.0Q364 1520 616 1520Q869 1520 992.5 1328.0Q1116 1136 1116 745Z" fill="#373734"/>
<path transform="translate(246.10,195.00) scale(0.006348,-0.006348)" d="M1073 53Q996 12 915.0 -8.5Q834 -29 743 -29Q456 -29 297.5 174.0Q139 377 139 745Q139 1111 298.5 1315.5Q458 1520 743 1520Q834 1520 915.0 1499.5Q996 1479 1073 1438V1231Q999 1292 914.0 1324.0Q829 1356 743 1356Q546 1356 448.0 1204.0Q350 1052 350 745Q350 439 448.0 287.0Q546 135 743 135Q831 135 915.5 167.0Q1000 199 1073 260Z" fill="#373734"/>
<path transform="translate(258.09,195.00) scale(0.006348,-0.006348)" d="M616 1315 403 551H829ZM494 1493H739L1196 0H987L877 389H354L246 0H37Z" fill="#373734"/>
<path transform="translate(270.07,195.00) scale(0.006348,-0.006348)" d="M760 705Q838 685 893.0 629.5Q948 574 1030 408L1233 0H1016L838 377Q761 538 699.5 584.5Q638 631 539 631H346V0H143V1493H559Q805 1493 936.0 1382.0Q1067 1271 1067 1061Q1067 913 986.5 819.5Q906 726 760 705ZM346 1327V797H567Q712 797 783.0 862.0Q854 927 854 1061Q854 1190 778.5 1258.5Q703 1327 559 1327Z" fill="#373734"/>
<path transform="translate(282.06,195.00) scale(0.006348,-0.006348)" d="M197 1493H1083V1323H399V881H1053V711H399V170H1102V0H197Z" fill="#373734"/>
</svg>