<svg xmlns="http://www.w3.org/2000/svg" viewBox="0 0 400 230" width="400" height="230">
<rect x="0" y="0" width="400" height="230" fill="#0b0b09"/>
<path transform="translate(24.00,150.00) scale(0.052861,-0.052861)" d="M528 480Q509 515 473.5 533.5Q438 552 390 552Q307 552 257.0 497.5Q207 443 207 352Q207 255 259.5 200.5Q312 146 404 146Q467 146 510.5 178.0Q554 210 574 270H357V396H729V237Q710 173 664.5 118.0Q619 63 549.0 29.0Q479 -5 391 -5Q287 -5 205.5 40.5Q124 86 78.5 167.0Q33 248 33 352Q33 456 78.5 537.5Q124 619 205.0 664.5Q286 710 390 710Q516 710 602.5 649.0Q689 588 717 480Z" fill="#a7a8a3"/>
<path transform="translate(65.07,150.00) scale(0.052861,-0.052861)" d="M230 702V282Q230 219 261.0 185.0Q292 151 352 151Q412 151 444.0 185.0Q476 219 476 282V702H647V283Q647 189 607.0 124.0Q567 59 499.5 26.0Q432 -7 349 -7Q266 -7 200.5 25.5Q135 58 97.0 123.5Q59 189 59 283V702Z" fill="#a7a8a3"/>
<path transform="translate(103.13,150.00) scale(0.052861,-0.052861)" d="M233 132H457V0H62V702H233Z" fill="#a7a8a3"/>
<path transform="translate(129.14,150.00) scale(0.052861,-0.052861)" d="M519 702V565H233V417H447V284H233V0H62V702Z" fill="#a7a8a3"/>
<path transform="translate(175.50,150.00) scale(0.052861,-0.052861)" d="M857 702V0H686V421L529 0H391L233 422V0H62V702H264L461 216L656 702Z" fill="#a7a8a3"/>
<path transform="translate(224.82,150.00) scale(0.052861,-0.052861)" d="M33 353Q33 456 81.5 538.0Q130 620 212.5 666.0Q295 712 394 712Q493 712 575.5 666.0Q658 620 705.5 538.0Q753 456 753 353Q753 250 705.0 167.5Q657 85 575.0 39.0Q493 -7 394 -7Q295 -7 212.5 39.0Q130 85 81.5 167.5Q33 250 33 353ZM579 353Q579 446 528.5 501.5Q478 557 394 557Q309 557 258.5 502.0Q208 447 208 353Q208 260 258.5 204.5Q309 149 394 149Q478 149 528.5 205.0Q579 261 579 353Z" fill="#a7a8a3"/>
<path transform="translate(267.16,150.00) scale(0.052861,-0.052861)" d="M567 702V565H381V0H210V565H24V702Z" fill="#a7a8a3"/>
<path transform="translate(299.19,150.00) scale(0.052861,-0.052861)" d="M33 353Q33 456 81.5 538.0Q130 620 212.5 666.0Q295 712 394 712Q493 712 575.5 666.0Q658 620 705.5 538.0Q753 456 753 353Q753 250 705.0 167.5Q657 85 575.0 39.0Q493 -7 394 -7Q295 -7 212.5 39.0Q130 85 81.5 167.5Q33 250 33 353ZM579 353Q579 446 528.5 501.5Q478 557 394 557Q309 557 258.5 502.0Q208 447 208 353Q208 260 258.5 204.5Q309 149 394 149Q478 149 528.5 205.0Q579 261 579 353Z" fill="#a7a8a3"/>
<path transform="translate(341.53,150.00) scale(0.052861,-0.052861)" d="M420 0 274 265H233V0H62V702H349Q432 702 490.5 673.0Q549 644 578.0 593.5Q607 543 607 481Q607 411 567.5 356.0Q528 301 451 278L613 0ZM233 386H339Q386 386 409.5 409.0Q433 432 433 474Q433 514 409.5 537.0Q386 560 339 560H233Z" fill="#a7a8a3"/>
<path transform="translate(110.11,195.00) scale(0.006348,-0.006348)" d="M1104 123Q1023 48 921.5 9.5Q820 -29 702 -29Q418 -29 260.0 174.5Q102 378 102 745Q102 1111 262.0 1315.5Q422 1520 707 1520Q801 1520 887.0 1493.5Q973 1467 1053 1413V1206Q972 1283 887.0 1319.5Q802 1356 707 1356Q510 1356 411.5 1203.5Q313 1051 313 745Q313 434 408.5 284.5Q504 135 702 135Q769 135 819.5 150.5Q870 166 911 199V600H694V766H1104Z" fill="#373734"/>
<path transform="translate(122.10,195.00) scale(0.006348,-0.006348)" d="M147 573V1493H350V481Q350 372 356.0 325.5Q362 279 377 254Q409 195 469.5 165.0Q530 135 616 135Q703 135 763.0 165.0Q823 195 856 254Q871 279 877.0 325.0Q883 371 883 479V1493H1085V573Q1085 344 1056.5 247.5Q1028 151 958 88Q892 29 807.0 0.0Q722 -29 616 -29Q511 -29 426.0 0.0Q341 29 274 88Q205 150 176.0 248.5Q147 347 147 573Z" fill="#373734"/>
<path transform="translate(134.09,195.00) scale(0.006348,-0.006348)" d="M215 1493H418V170H1139V0H215Z" fill="#373734"/>
<path transform="translate(146.07,195.00) scale(0.006348,-0.006348)" d="M233 1493H1112V1323H436V883H1049V713H436V0H233Z" fill="#373734"/>
<path transform="translate(166.12,195.00) scale(0.006348,-0.006348)" d="M86 1493H356L614 733L874 1493H1145V0H958V1319L692 532H539L272 1319V0H86Z" fill="#373734"/>
<path transform="translate(178.11,195.00) scale(0.006348,-0.006348)" d="M905 745Q905 1074 837.5 1215.0Q770 1356 616 1356Q463 1356 395.5 1215.0Q328 1074 328 745Q328 417 395.5 276.0Q463 135 616 135Q770 135 837.5 275.5Q905 416 905 745ZM1116 745Q1116 355 992.5 163.0Q869 -29 616 -29Q363 -29 240.0 162.0Q117 353 117 745Q117 1136 240.5 1328.0Q364 1520 616 1520Q869 1520 992.5 1328.0Q1116 1136 1116 745Z" fill="#373734"/>
<path transform="translate(190.09,195.00) scale(0.006348,-0.006348)" d="M47 1493H1186V1323H719V0H516V1323H47Z" fill="#373734"/>
<path transform="translate(202.08,195.00) scale(0.006348,-0.006348)" d="M905 745Q905 1074 837.5 1215.0Q770 1356 616 1356Q463 1356 395.5 1215.0Q328 1074 328 745Q328 417 395.5 276.0Q463 135 616 135Q770 135 837.5 275.5Q905 416 905 745ZM1116 745Q1116 355 992.5 163.0Q869 -29 616 -29Q363 -29 240.0 162.0Q117 353 117 745Q117 1136 240.5 1328.0Q364 1520 616 1520Q869 1520 992.5 1328.0Q1116 1136 1116 745Z" fill="#373734"/>
<path transform="translate(214.07,195.00) scale(0.006348,-0.006348)" d="M760 705Q838 685 893.0 629.5Q948 574 1030 408L1233 0H1016L838 377Q761 538 699.5 584.5Q638 631 539 631H346V0H143V1493H559Q805 1493 936.0 1382.0Q1067 1271 1067 1061Q1067 913 986.5 819.5Q906 726 760 705ZM346 1327V797H567Q712 797 783.0 862.0Q854 927 854 1061Q854 1190 778.5 1258.5Q703 1327 559 1327Z" fill="#373734"/>
<path transform="translate(234.11,195.00) scale(0.006348,-0.006348)" d="M0 1493H197L340 281L510 1083H721L893 279L1036 1493H1233L1010 0H819L616 887L414 0H223Z" fill="#373734"/>
<path transform="translate(246.10,195.00) scale(0.006348,-0.006348)" d="M905 745Q905 1074 837.5 1215.0Q770 1356 616 1356Q463 1356 395.5 1215.0Q328 1074 328 745Q328 417 395.5 276.0Q463 135 616 135Q770 135 837.5 275.5Q905 416 905 745ZM1116 745Q1116 355 992.5 163.0Q869 -29 616 -29Q363 -29 240.0 162.0Q117 353 117 745Q117 1136 240.5 1328.0Q364 1520 616 1520Q869 1520 992.5 1328.0Q1116 1136 1116 745Z" fill="#373734"/>
<path transform="translate(258.09,195.00) scale(0.006348,-0.006348)" d="M760 705Q838 685 893.0 629.5Q948 574 1030 408L1233 0H1016L838 377Q761 538 699.5 584.5Q638 631 539 631H346V0H143V1493H559Q805 1493 936.0 1382.0Q1067 1271 1067 1061Q1067 913 986.5 819.5Q906 726 760 705ZM346 1327V797H567Q712 797 783.0 862.0Q854 927 854 1061Q854 1190 778.5 1258.5Q703 1327 559 1327Z" fill="#373734"/>
<path transform="translate(270.07,195.00) scale(0.006348,-0.006348)" d="M137 1493H340V829L971 1493H1208L627 883L1225 0H981L494 748L340 584V0H137Z" fill="#373734"/>
<path transform="translate(282.06,195.00) scale(0.006348,-0.006348)" d="M1012 1442V1237Q920 1296 827.5 1326.0Q735 1356 641 1356Q498 1356 415.0 1289.5Q332 1223 332 1110Q332 1011 386.5 959.0Q441 907 590 872L696 848Q906 799 1002.0 694.0Q1098 589 1098 408Q1098 195 966.0 83.0Q834 -29 582 -29Q477 -29 371.0 -6.5Q265 16 158 61V276Q273 203 375.5 169.0Q478 135 582 135Q735 135 820.0 203.5Q905 272 905 395Q905 507 846.5 566.0Q788 625 643 657L535 682Q327 729 233.0 824.0Q139 919 139 1079Q139 1279 273.5 1399.5Q408 1520 631 1520Q717 1520 812.0 1500.5Q907 1481 1012 1442Z" fill="#373734"/>
</svg>