<svg xmlns="http://www.w3.org/2000/svg" viewBox="0 0 400 230" width="400" height="230">
<rect x="0" y="0" width="400" height="230" fill="#0b0b09"/>
<path transform="translate(24.00,150.00) scale(0.135073,-0.135073)" d="M233 132H457V0H62V702H233Z" fill="#a7a8a3"/>
<path transform="translate(90.46,150.00) scale(0.135073,-0.135073)" d="M233 702V0H62V702Z" fill="#a7a8a3"/>
<path transform="translate(132.33,150.00) scale(0.135073,-0.135073)" d="M1028 702 845 0H638L526 462L410 0H203L25 702H208L309 191L434 702H622L742 191L844 702Z" fill="#a7a8a3"/>
<path transform="translate(276.45,150.00) scale(0.135073,-0.135073)" d="M499 124H237L195 0H16L270 702H468L722 0H541ZM455 256 368 513 282 256Z" fill="#a7a8a3"/>
<path transform="translate(72.09,195.00) scale(0.006348,-0.006348)" d="M215 1493H418V170H1139V0H215Z" fill="#373734"/>
<path transform="translate(84.07,195.00) scale(0.006348,-0.006348)" d="M201 1493H1030V1323H717V170H1030V0H201V170H514V1323H201Z" fill="#373734"/>
<path transform="translate(96.06,195.00) scale(0.006348,-0.006348)" d="M0 1493H197L340 281L510 1083H721L893 279L1036 1493H1233L1010 0H819L616 887L414 0H223Z" fill="#373734"/>
<path transform="translate(108.05,195.00) scale(0.006348,-0.006348)" d="M616 1315 403 551H829ZM494 1493H739L1196 0H987L877 389H354L246 0H37Z" fill="#373734"/>
<path transform="translate(128.09,195.00) scale(0.006348,-0.006348)" d="M1073 53Q996 12 915.0 -8.5Q834 -29 743 -29Q456 -29 297.5 174.0Q139 377 139 745Q139 1111 298.5 1315.5Q458 1520 743 1520Q834 1520 915.0 1499.5Q996 1479 1073 1438V1231Q999 1292 914.0 1324.0Q829 1356 743 1356Q546 1356 448.0 1204.0Q350 1052 350 745Q350 439 448.0 287.0Q546 135 743 135Q831 135 915.5 167.0Q1000 199 1073 260Z" fill="#373734"/>
<path transform="translate(140.08,195.00) scale(0.006348,-0.006348)" d="M616 1315 403 551H829ZM494 1493H739L1196 0H987L877 389H354L246 0H37Z" fill="#373734"/>
<path transform="translate(152.07,195.00) scale(0.006348,-0.006348)" d="M760 705Q838 685 893.0 629.5Q948 574 1030 408L1233 0H1016L838 377Q761 538 699.5 584.5Q638 631 539 631H346V0H143V1493H559Q805 1493 936.0 1382.0Q1067 1271 1067 1061Q1067 913 986.5 819.5Q906 726 760 705ZM346 1327V797H567Q712 797 783.0 862.0Q854 927 854 1061Q854 1190 778.5 1258.5Q703 1327 559 1327Z" fill="#373734"/>
<path transform="translate(172.11,195.00) scale(0.006348,-0.006348)" d="M547 907 963 348Q1002 397 1021.0 472.0Q1040 547 1040 651Q1040 683 1037 753L1036 760H1200V721Q1200 560 1163.0 438.5Q1126 317 1051 229L1221 0H1008L930 109Q847 39 754.0 5.0Q661 -29 555 -29Q339 -29 198.0 105.5Q57 240 57 444Q57 581 126.0 698.0Q195 815 334 915Q284 987 260.0 1056.0Q236 1125 236 1196Q236 1346 335.5 1433.0Q435 1520 608 1520Q673 1520 738.5 1508.0Q804 1496 874 1473V1290Q815 1329 752.5 1347.5Q690 1366 621 1366Q524 1366 468.0 1320.5Q412 1275 412 1198Q412 1139 441.0 1074.5Q470 1010 547 907ZM416 803Q324 730 278.5 648.5Q233 567 233 475Q233 324 333.0 224.5Q433 125 588 125Q630 125 676.0 137.0Q722 149 766 172Q793 187 810.5 198.5Q828 210 844 223Z" fill="#373734"/>
<path transform="translate(192.16,195.00) scale(0.006348,-0.006348)" d="M47 1493H1186V1323H719V0H516V1323H47Z" fill="#373734"/>
<path transform="translate(204.15,195.00) scale(0.006348,-0.006348)" d="M37 1493H252L616 834L979 1493H1196L717 670V0H514V670Z" fill="#373734"/>
<path transform="translate(216.13,195.00) scale(0.006348,-0.006348)" d="M760 705Q838 685 893.0 629.5Q948 574 1030 408L1233 0H1016L838 377Q761 538 699.5 584.5Q638 631 539 631H346V0H143V1493H559Q805 1493 936.0 1382.0Q1067 1271 1067 1061Q1067 913 986.5 819.5Q906 726 760 705ZM346 1327V797H567Q712 797 783.0 862.0Q854 927 854 1061Q854 1190 778.5 1258.5Q703 1327 559 1327Z" fill="#373734"/>
<path transform="translate(228.12,195.00) scale(0.006348,-0.006348)" d="M197 1493H1083V1323H399V881H1053V711H399V170H1102V0H197Z" fill="#373734"/>
<path transform="translate(248.17,195.00) scale(0.006348,-0.006348)" d="M1012 1442V1237Q920 1296 827.5 1326.0Q735 1356 641 1356Q498 1356 415.0 1289.5Q332 1223 332 1110Q332 1011 386.5 959.0Q441 907 590 872L696 848Q906 799 1002.0 694.0Q1098 589 1098 408Q1098 195 966.0 83.0Q834 -29 582 -29Q477 -29 371.0 -6.5Q265 16 158 61V276Q273 203 375.5 169.0Q478 135 582 135Q735 135 820.0 203.5Q905 272 905 395Q905 507 846.5 566.0Q788 625 643 657L535 682Q327 729 233.0 824.0Q139 919 139 1079Q139 1279 273.5 1399.5Q408 1520 631 1520Q717 1520 812.0 1500.5Q907 1481 1012 1442Z" fill="#373734"/>
<path transform="translate(260.15,195.00) scale(0.006348,-0.006348)" d="M197 1493H1083V1323H399V881H1053V711H399V170H1102V0H197Z" fill="#373734"/>
<path transform="translate(272.14,195.00) scale(0.006348,-0.006348)" d="M760 705Q838 685 893.0 629.5Q948 574 1030 408L1233 0H1016L838 377Q761 538 699.5 584.5Q638 631 539 631H346V0H143V1493H559Q805 1493 936.0 1382.0Q1067 1271 1067 1061Q1067 913 986.5 819.5Q906 726 760 705ZM346 1327V797H567Q712 797 783.0 862.0Q854 927 854 1061Q854 1190 778.5 1258.5Q703 1327 559 1327Z" fill="#373734"/>
<path transform="translate(284.13,195.00) scale(0.006348,-0.006348)" d="M616 170 967 1493H1176L739 0H494L57 1493H266Z" fill="#373734"/>
<path transform="translate(296.11,195.00) scale(0.006348,-0.006348)" d="M201 1493H1030V1323H717V170H1030V0H201V170H514V1323H201Z" fill="#373734"/>
<path transform="translate(308.10,195.00) scale(0.006348,-0.006348)" d="M1073 53Q996 12 915.0 -8.5Q834 -29 743 -29Q456 -29 297.5 174.0Q139 377 139 745Q139 1111 298.5 1315.5Q458 1520 743 1520Q834 1520 915.0 1499.5Q996 1479 1073 1438V1231Q999 1292 914.0 1324.0Q829 1356 743 1356Q546 1356 448.0 1204.0Q350 1052 350 745Q350 439 448.0 287.0Q546 135 743 135Q831 135 915.5 167.0Q1000 199 1073 260Z" fill="#373734"/>
<path transform="translate(320.09,195.00) scale(0.006348,-0.006348)" d="M197 1493H1083V1323H399V881H1053V711H399V170H1102V0H197Z" fill="#373734"/>
</svg>