<svg xmlns="http://www.w3.org/2000/svg" viewBox="0 0 400 230" width="400" height="230">
<rect x="0" y="0" width="400" height="230" fill="#0b0b09"/>
<path transform="translate(24.00,150.00) scale(0.089704,-0.089704)" d="M125 62H482V0H43V56L395 637H49V699H477V643Z" fill="#a7a8a3"/>
<path transform="translate(75.58,150.00) scale(0.089704,-0.089704)" d="M147 699V259Q147 155 196.5 105.0Q246 55 332 55Q418 55 466.5 104.5Q515 154 515 259V699H585V260Q585 127 514.5 60.0Q444 -7 331 -7Q218 -7 147.5 60.0Q77 127 77 260V699Z" fill="#a7a8a3"/>
<path transform="translate(139.36,150.00) scale(0.089704,-0.089704)" d="M548 187Q548 134 521.5 91.5Q495 49 444.0 24.5Q393 0 322 0H80V699H315Q421 699 476.5 650.0Q532 601 532 523Q532 458 497.0 417.5Q462 377 407 361Q466 350 507.0 301.0Q548 252 548 187ZM150 390H313Q384 390 422.5 423.5Q461 457 461 516Q461 574 422.5 607.0Q384 640 310 640H150ZM478 194Q478 257 433.5 294.5Q389 332 314 332H150V59H317Q393 59 435.5 95.0Q478 131 478 194Z" fill="#a7a8a3"/>
<path transform="translate(197.40,150.00) scale(0.089704,-0.089704)" d="M485 166H167L106 0H32L287 690H366L620 0H546ZM464 224 326 602 188 224Z" fill="#a7a8a3"/>
<path transform="translate(260.37,150.00) scale(0.089704,-0.089704)" d="M452 0 279 292H150V0H80V699H290Q407 699 467.5 643.0Q528 587 528 496Q528 420 484.5 366.5Q441 313 356 297L536 0ZM150 349H291Q373 349 414.5 389.0Q456 429 456 496Q456 565 416.0 602.5Q376 640 290 640H150Z" fill="#a7a8a3"/>
<path transform="translate(317.51,150.00) scale(0.089704,-0.089704)" d="M485 166H167L106 0H32L287 690H366L620 0H546ZM464 224 326 602 188 224Z" fill="#a7a8a3"/>
<path transform="translate(108.15,195.00) scale(0.006348,-0.006348)" d="M178 1493H1147V1339L367 170H1169V0H156V154L915 1323H178Z" fill="#373734"/>
<path transform="translate(120.14,195.00) scale(0.006348,-0.006348)" d="M147 573V1493H350V481Q350 372 356.0 325.5Q362 279 377 254Q409 195 469.5 165.0Q530 135 616 135Q703 135 763.0 165.0Q823 195 856 254Q871 279 877.0 325.0Q883 371 883 479V1493H1085V573Q1085 344 1056.5 247.5Q1028 151 958 88Q892 29 807.0 0.0Q722 -29 616 -29Q511 -29 426.0 0.0Q341 29 274 88Q205 150 176.0 248.5Q147 347 147 573Z" fill="#373734"/>
<path transform="translate(132.12,195.00) scale(0.006348,-0.006348)" d="M369 713V166H608Q784 166 859.0 227.5Q934 289 934 430Q934 576 855.0 644.5Q776 713 608 713ZM369 1327V877H604Q750 877 815.5 933.0Q881 989 881 1114Q881 1227 816.5 1277.0Q752 1327 604 1327ZM166 1493H608Q837 1493 961.0 1394.0Q1085 1295 1085 1114Q1085 977 1019.5 898.0Q954 819 823 799Q970 777 1053.5 673.5Q1137 570 1137 410Q1137 207 1004.0 103.5Q871 0 608 0H166Z" fill="#373734"/>
<path transform="translate(144.11,195.00) scale(0.006348,-0.006348)" d="M616 1315 403 551H829ZM494 1493H739L1196 0H987L877 389H354L246 0H37Z" fill="#373734"/>
<path transform="translate(156.10,195.00) scale(0.006348,-0.006348)" d="M760 705Q838 685 893.0 629.5Q948 574 1030 408L1233 0H1016L838 377Q761 538 699.5 584.5Q638 631 539 631H346V0H143V1493H559Q805 1493 936.0 1382.0Q1067 1271 1067 1061Q1067 913 986.5 819.5Q906 726 760 705ZM346 1327V797H567Q712 797 783.0 862.0Q854 927 854 1061Q854 1190 778.5 1258.5Q703 1327 559 1327Z" fill="#373734"/>
<path transform="translate(168.08,195.00) scale(0.006348,-0.006348)" d="M616 1315 403 551H829ZM494 1493H739L1196 0H987L877 389H354L246 0H37Z" fill="#373734"/>
<path transform="translate(188.13,195.00) scale(0.006348,-0.006348)" d="M436 166Q691 166 792.0 291.5Q893 417 893 745Q893 1076 792.5 1201.5Q692 1327 436 1327H340V166ZM440 1493Q782 1493 944.0 1311.0Q1106 1129 1106 745Q1106 363 944.0 181.5Q782 0 440 0H137V1493Z" fill="#373734"/>
<path transform="translate(200.12,195.00) scale(0.006348,-0.006348)" d="M197 1493H1083V1323H399V881H1053V711H399V170H1102V0H197Z" fill="#373734"/>
<path transform="translate(212.10,195.00) scale(0.006348,-0.006348)" d="M47 1493H1186V1323H719V0H516V1323H47Z" fill="#373734"/>
<path transform="translate(224.09,195.00) scale(0.006348,-0.006348)" d="M616 1315 403 551H829ZM494 1493H739L1196 0H987L877 389H354L246 0H37Z" fill="#373734"/>
<path transform="translate(236.08,195.00) scale(0.006348,-0.006348)" d="M201 1493H1030V1323H717V170H1030V0H201V170H514V1323H201Z" fill="#373734"/>
<path transform="translate(248.06,195.00) scale(0.006348,-0.006348)" d="M215 1493H418V170H1139V0H215Z" fill="#373734"/>
<path transform="translate(260.05,195.00) scale(0.006348,-0.006348)" d="M201 1493H1030V1323H717V170H1030V0H201V170H514V1323H201Z" fill="#373734"/>
<path transform="translate(272.04,195.00) scale(0.006348,-0.006348)" d="M139 1493H395L899 264V1493H1094V0H838L334 1229V0H139Z" fill="#373734"/>
<path transform="translate(284.02,195.00) scale(0.006348,-0.006348)" d="M1104 123Q1023 48 921.5 9.5Q820 -29 702 -29Q418 -29 260.0 174.5Q102 378 102 745Q102 1111 262.0 1315.5Q422 1520 707 1520Q801 1520 887.0 1493.5Q973 1467 1053 1413V1206Q972 1283 887.0 1319.5Q802 1356 707 1356Q510 1356 411.5 1203.5Q313 1051 313 745Q313 434 408.5 284.5Q504 135 702 135Q769 135 819.5 150.5Q870 166 911 199V600H694V766H1104Z" fill="#373734"/>
</svg>